<svg width="49" height="48" viewBox="0 0 49 48" fill="none" xmlns="http://www.w3.org/2000/svg">
<path d="M39.25 6H9.25C8.45435 6 7.69129 6.31607 7.12868 6.87868C6.56607 7.44129 6.25 8.20435 6.25 9V39C6.25 39.7957 6.56607 40.5587 7.12868 41.1213C7.69129 41.6839 8.45435 42 9.25 42H39.25C40.0457 42 40.8087 41.6839 41.3713 41.1213C41.9339 40.5587 42.25 39.7957 42.25 39V9C42.25 8.20435 41.9339 7.44129 41.3713 6.87868C40.8087 6.31607 40.0457 6 39.25 6ZM39.25 39H9.25V9H39.25V39ZM33.25 24C33.25 24.3978 33.092 24.7794 32.8107 25.0607C32.5294 25.342 32.1478 25.5 31.75 25.5H25.75V31.5C25.75 31.8978 25.592 32.2794 25.3107 32.5607C25.0294 32.842 24.6478 33 24.25 33C23.8522 33 23.4706 32.842 23.1893 32.5607C22.908 32.2794 22.75 31.8978 22.75 31.5V25.5H16.75C16.3522 25.5 15.9706 25.342 15.6893 25.0607C15.408 24.7794 15.25 24.3978 15.25 24C15.25 23.6022 15.408 23.2206 15.6893 22.9393C15.9706 22.658 16.3522 22.5 16.75 22.5H22.75V16.5C22.75 16.1022 22.908 15.7206 23.1893 15.4393C23.4706 15.158 23.8522 15 24.25 15C24.6478 15 25.0294 15.158 25.3107 15.4393C25.592 15.7206 25.75 16.1022 25.75 16.5V22.5H31.75C32.1478 22.5 32.5294 22.658 32.8107 22.9393C33.092 23.2206 33.25 23.6022 33.25 24Z" fill="#F2F2F2"/>
</svg>
