<svg width="49" height="49" viewBox="0 0 49 49" fill="none" xmlns="http://www.w3.org/2000/svg">
<path d="M26.5 24.4326C26.5 24.8776 26.368 25.3126 26.1208 25.6827C25.8736 26.0527 25.5222 26.341 25.111 26.5113C24.6999 26.6816 24.2475 26.7262 23.811 26.6394C23.3746 26.5526 22.9737 26.3383 22.659 26.0236C22.3443 25.7089 22.1301 25.308 22.0432 24.8716C21.9564 24.4351 22.001 23.9827 22.1713 23.5716C22.3416 23.1604 22.63 22.809 23 22.5618C23.37 22.3146 23.805 22.1826 24.25 22.1826C24.8467 22.1826 25.419 22.4197 25.841 22.8416C26.2629 23.2636 26.5 23.8359 26.5 24.4326ZM24.25 13.9326C24.695 13.9326 25.13 13.8007 25.5 13.5534C25.87 13.3062 26.1584 12.9548 26.3287 12.5437C26.499 12.1325 26.5436 11.6801 26.4568 11.2437C26.37 10.8072 26.1557 10.4063 25.841 10.0916C25.5263 9.77696 25.1254 9.56267 24.689 9.47585C24.2525 9.38903 23.8001 9.43359 23.389 9.60389C22.9778 9.77419 22.6264 10.0626 22.3792 10.4326C22.132 10.8026 22 11.2376 22 11.6826C22 12.2794 22.2371 12.8517 22.659 13.2736C23.081 13.6956 23.6533 13.9326 24.25 13.9326ZM24.25 34.9326C23.805 34.9326 23.37 35.0646 23 35.3118C22.63 35.559 22.3416 35.9104 22.1713 36.3216C22.001 36.7327 21.9564 37.1851 22.0432 37.6216C22.1301 38.058 22.3443 38.4589 22.659 38.7736C22.9737 39.0883 23.3746 39.3026 23.811 39.3894C24.2475 39.4762 24.6999 39.4316 25.111 39.2613C25.5222 39.091 25.8736 38.8027 26.1208 38.4326C26.368 38.0626 26.5 37.6276 26.5 37.1826C26.5 36.5859 26.2629 36.0136 25.841 35.5916C25.419 35.1697 24.8467 34.9326 24.25 34.9326Z" fill="#F2F2F2"/>
</svg>
